<svg width="25" height="24" viewBox="0 0 25 24" fill="none" xmlns="http://www.w3.org/2000/svg">
<circle cx="12.1328" cy="12" r="12" fill="#3B82F6"/>
<path d="M16.6328 12.75H12.8828V16.5C12.8828 16.9125 12.5453 17.25 12.1328 17.25C11.7203 17.25 11.3828 16.9125 11.3828 16.5V12.75H7.63281C7.22031 12.75 6.88281 12.4125 6.88281 12C6.88281 11.5875 7.22031 11.25 7.63281 11.25H11.3828V7.5C11.3828 7.0875 11.7203 6.75 12.1328 6.75C12.5453 6.75 12.8828 7.0875 12.8828 7.5V11.25H16.6328C17.0453 11.25 17.3828 11.5875 17.3828 12C17.3828 12.4125 17.0453 12.75 16.6328 12.75Z" fill="white"/>
</svg>
