<svg width="24" height="26" viewBox="0 0 24 26" fill="none" xmlns="http://www.w3.org/2000/svg">
<g clip-path="url(#clip0_1120_47143)">
<path d="M5.08844 1.93854C5.08844 2.01363 5.08844 2.09266 5.08844 2.1717C5.08646 2.97789 5.07263 3.78606 5.08251 4.59225C5.09437 5.5091 5.77212 6.31529 6.63364 6.47337C7.72635 6.67491 8.69852 6.05249 8.92773 5.00325C8.95144 4.8926 8.95539 4.77404 8.95539 4.66141C8.95737 3.76433 8.95539 2.86724 8.95539 1.9504H15.0512C15.0512 2.04327 15.0512 2.13218 15.0512 2.21913C15.0512 3.01741 15.0512 3.8157 15.0512 4.61399C15.0512 5.64346 15.808 6.42989 16.8118 6.50103C18.027 6.586 18.8411 5.70274 18.8806 4.78194C18.9162 3.94414 18.8984 3.10436 18.8984 2.26457C18.8984 1.9168 18.8945 1.92273 19.2363 1.92668C19.8824 1.93459 20.5306 1.94842 21.1787 1.94052C22.6211 1.92471 23.9747 3.04903 23.9845 4.75823C23.9865 5.14552 23.9885 5.53281 23.9885 5.91812C23.9885 11.4666 23.9885 17.0171 23.9964 22.5656C23.9984 23.7729 23.5439 24.7016 22.4887 25.3062C21.9809 25.5967 21.4217 25.652 20.8507 25.652C16.7209 25.652 12.5931 25.652 8.46338 25.652C6.66921 25.652 4.87504 25.652 3.08087 25.652C2.38533 25.652 1.73326 25.5196 1.16616 25.079C0.464696 24.5336 0.069504 23.8262 0.0141772 22.9371C-0.00558244 22.617 -0.00163052 22.2949 -0.00163052 21.9748C0.00034544 16.6219 0.00034544 11.269 0.0023214 5.91812C0.0023214 5.38461 0.00627332 4.84715 0.0616002 4.31562C0.188062 3.07274 1.33412 2.00177 2.57897 1.95237C3.2508 1.92668 3.92262 1.94052 4.59445 1.93656C4.74858 1.93656 4.9027 1.93656 5.09042 1.93656L5.08844 1.93854ZM1.10688 9.19031C1.10293 9.24959 1.09305 9.30689 1.09305 9.36222C1.09305 13.8812 1.09107 18.4003 1.09305 22.9193C1.09305 23.7077 1.82416 24.4842 2.60664 24.5336C2.98997 24.5573 3.37528 24.5435 3.7606 24.5435C9.55213 24.5455 15.3417 24.5475 21.1332 24.5494C21.4751 24.5494 21.8031 24.506 22.0935 24.3064C22.6567 23.9191 22.9215 23.3915 22.9195 22.696C22.9116 18.2837 22.9155 13.8714 22.9155 9.45904V9.19031H1.10688Z" fill="#60A2FC"/>
<path d="M5.95542 2.76901C5.95542 2.18412 5.93566 1.59924 5.96135 1.01633C5.98506 0.449231 6.44546 0.0243993 7.00268 0.00463975C7.55002 -0.0151198 8.0203 0.36624 8.10724 0.919509C8.14479 1.16255 8.17047 1.40955 8.1685 1.65654C8.16059 2.65243 8.15664 3.64831 8.11712 4.64222C8.09341 5.23105 7.62116 5.67367 7.07777 5.6875C6.50276 5.70133 5.99297 5.27255 5.95542 4.6679C5.9159 4.03757 5.94752 3.40131 5.94752 2.76901C5.95147 2.76901 5.95542 2.76901 5.9574 2.76901H5.95542Z" fill="#60A2FC"/>
<path d="M18.0667 2.8383C18.0667 3.43108 18.0548 4.0219 18.0706 4.61468C18.0844 5.14424 17.5391 5.69356 16.966 5.68763C16.5353 5.68368 15.9267 5.34974 15.8971 4.66803C15.8575 3.76502 15.8477 2.86003 15.8477 1.95702C15.8477 1.57368 15.8654 1.18244 15.9425 0.808986C16.0492 0.285357 16.5768 -0.0485803 17.1083 0.0106984C17.6142 0.0660253 18.0489 0.522472 18.0588 1.04017C18.0706 1.64086 18.0627 2.24156 18.0627 2.84027C18.0647 2.84027 18.0667 2.84027 18.0686 2.84027L18.0667 2.8383Z" fill="#60A2FC"/>
<path d="M7.95916 15.6703H4.56446C4.56446 15.3423 4.56446 15.0241 4.56446 14.706C4.56446 13.965 4.56446 13.226 4.56446 12.485C4.56446 12.3605 4.56051 12.2598 4.73637 12.2617C5.76782 12.2716 6.79729 12.2756 7.82874 12.2815C7.86826 12.2815 7.90778 12.2914 7.95916 12.2993V15.6723V15.6703Z" fill="#60A2FC"/>
<path d="M16.0508 15.664V12.2852H19.4139V15.664H16.0508Z" fill="#60A2FC"/>
<path d="M4.56643 18.0547H7.96113V21.4257C7.83664 21.4257 7.71018 21.4257 7.58372 21.4257C6.64316 21.4316 5.70261 21.4375 4.76205 21.4474C4.63559 21.4474 4.56445 21.4316 4.56445 21.2775C4.56841 20.2105 4.56643 19.1434 4.56643 18.0547Z" fill="#60A2FC"/>
<path d="M13.6834 15.6719H10.3223V12.2732C10.4507 12.2732 10.5633 12.2732 10.674 12.2732C11.5651 12.2732 12.4563 12.2693 13.3475 12.2732C13.6913 12.2732 13.6853 12.2831 13.6834 12.623C13.6794 13.6327 13.6834 14.6424 13.6834 15.6739V15.6719Z" fill="#60A2FC"/>
<path d="M16.0527 18.0527H19.4158V21.4237H16.0527V18.0527Z" fill="#60A2FC"/>
<path d="M13.6933 18.0625V21.4177H10.3145V18.0625H13.6933Z" fill="#60A2FC"/>
</g>
<defs>
<clipPath id="clip0_1120_47143">
<rect width="24" height="25.6519" fill="white"/>
</clipPath>
</defs>
</svg>
