<svg width="25" height="24" viewBox="0 0 25 24" fill="none" xmlns="http://www.w3.org/2000/svg">
<circle cx="12.5" cy="12" r="12" fill="#F9E8C9"/>
<path d="M17 12.75H13.25V16.5C13.25 16.9125 12.9125 17.25 12.5 17.25C12.0875 17.25 11.75 16.9125 11.75 16.5V12.75H8C7.5875 12.75 7.25 12.4125 7.25 12C7.25 11.5875 7.5875 11.25 8 11.25H11.75V7.5C11.75 7.0875 12.0875 6.75 12.5 6.75C12.9125 6.75 13.25 7.0875 13.25 7.5V11.25H17C17.4125 11.25 17.75 11.5875 17.75 12C17.75 12.4125 17.4125 12.75 17 12.75Z" fill="black"/>
</svg>
