<svg width="16" height="16" viewBox="0 0 16 16" fill="none" xmlns="http://www.w3.org/2000/svg">
<g opacity="0.8">
<path d="M3.33333 7.3335H8.66667V8.66683H3.33333V10.6668L0 8.00016L3.33333 5.3335V7.3335ZM2.66618 12.0002H4.47223C5.41241 12.83 6.64741 13.3335 8 13.3335C10.9455 13.3335 13.3333 10.9457 13.3333 8.00016C13.3333 5.05464 10.9455 2.66683 8 2.66683C6.64741 2.66683 5.41241 3.17034 4.47223 4.00016H2.66618C3.88245 2.3809 5.81891 1.3335 8 1.3335C11.6819 1.3335 14.6667 4.31826 14.6667 8.00016C14.6667 11.682 11.6819 14.6668 8 14.6668C5.81891 14.6668 3.88245 13.6194 2.66618 12.0002Z" fill="#3B82F6"/>
</g>
</svg>
