<svg width="24" height="25" viewBox="0 0 24 25" fill="none" xmlns="http://www.w3.org/2000/svg">
<g clip-path="url(#clip0_1615_2328)">
<path fill-rule="evenodd" clip-rule="evenodd" d="M12.2308 2.05452L23.5984 12.478C24.3689 13.1846 24.4208 14.3821 23.7142 15.1527L15.5763 24.0276C14.8697 24.7982 13.6722 24.8501 12.9016 24.1435L1.53412 13.72C1.14719 13.3652 0.924968 12.8656 0.920545 12.3407L0.851194 4.10854C0.842818 3.11427 1.60508 2.28298 2.59634 2.20534L10.8036 1.56252C11.327 1.52153 11.8439 1.69972 12.2308 2.05452ZM5.38302 8.56588C6.03452 9.16328 7.04696 9.11942 7.64436 8.46791C8.24177 7.81641 8.19791 6.80397 7.5464 6.20657C6.8949 5.60916 5.88246 5.65302 5.28505 6.30453C4.68765 6.95603 4.73151 7.96847 5.38302 8.56588Z" fill="#FFA800"/>
<mask id="mask0_1615_2328" style="mask-type:alpha" maskUnits="userSpaceOnUse" x="0" y="1" width="25" height="24">
<path fill-rule="evenodd" clip-rule="evenodd" d="M12.2308 2.05452L23.5984 12.478C24.3689 13.1846 24.4208 14.3821 23.7142 15.1527L15.5763 24.0276C14.8697 24.7982 13.6722 24.8501 12.9016 24.1435L1.53412 13.72C1.14719 13.3652 0.924968 12.8656 0.920545 12.3407L0.851194 4.10854C0.842818 3.11427 1.60508 2.28298 2.59634 2.20534L10.8036 1.56252C11.327 1.52153 11.8439 1.69972 12.2308 2.05452ZM5.38302 8.56588C6.03452 9.16328 7.04696 9.11942 7.64436 8.46791C8.24177 7.81641 8.19791 6.80397 7.5464 6.20657C6.8949 5.60916 5.88246 5.65302 5.28505 6.30453C4.68765 6.95603 4.73151 7.96847 5.38302 8.56588Z" fill="#FFA800"/>
</mask>
<g mask="url(#mask0_1615_2328)">
<path d="M5.09949 6.37576L1.29838 2.89031L0.970703 2.58984L0.919902 13.0389L14.3549 25.3582L19.583 19.6565L5.09949 6.37576Z" fill="#E89901"/>
</g>
</g>
<defs>
<clipPath id="clip0_1615_2328">
<rect width="24" height="24" fill="white" transform="translate(0 0.980469)"/>
</clipPath>
</defs>
</svg>
