<svg width="20" height="20" viewBox="0 0 20 20" fill="none" xmlns="http://www.w3.org/2000/svg">
<g clip-path="url(#clip0_2038_43604)">
<path d="M12.0072 10.2646C11.6818 10.59 11.1542 10.59 10.8287 10.2646L7.25722 6.6931C6.93179 6.36766 6.93628 5.83553 7.26172 5.51009C7.58716 5.18465 8.11929 5.18016 8.44472 5.5056L10.8287 7.88959C11.1541 8.21502 11.6818 8.21502 12.0072 7.88959L18.4745 1.42226C18.8 1.09683 19.3321 1.10132 19.6576 1.42676C19.983 1.75219 19.9875 2.28433 19.662 2.60976L12.0072 10.2646Z" fill="white"/>
<g clip-path="url(#clip1_2038_43604)">
<path d="M12.0072 14.2646C11.6818 14.59 11.1542 14.59 10.8287 14.2646L7.25722 10.6931C6.93179 10.3677 6.93628 9.83553 7.26172 9.51009C7.58716 9.18465 8.11929 9.18016 8.44472 9.5056L10.8287 11.8896C11.1541 12.215 11.6818 12.215 12.0072 11.8896L18.4745 5.42226C18.8 5.09683 19.3321 5.10132 19.6576 5.42676C19.983 5.75219 19.9875 6.28433 19.662 6.60976L12.0072 14.2646Z" fill="white"/>
</g>
</g>
<defs>
<clipPath id="clip0_2038_43604">
<rect width="20" height="20" fill="white"/>
</clipPath>
<clipPath id="clip1_2038_43604">
<rect width="20" height="20" fill="white" transform="translate(0 4)"/>
</clipPath>
</defs>
</svg>
