<svg width="21" height="20" viewBox="0 0 21 20" fill="none" xmlns="http://www.w3.org/2000/svg">
<path d="M13.4706 7.59L10.3906 10.67L7.31063 7.59L5.89062 9L10.3906 13.5L14.8906 9L13.4706 7.59ZM10.3906 0C4.87063 0 0.390625 4.48 0.390625 10C0.390625 15.52 4.87063 20 10.3906 20C15.9106 20 20.3906 15.52 20.3906 10C20.3906 4.48 15.9106 0 10.3906 0ZM10.3906 18C5.97062 18 2.39062 14.42 2.39062 10C2.39062 5.58 5.97062 2 10.3906 2C14.8106 2 18.3906 5.58 18.3906 10C18.3906 14.42 14.8106 18 10.3906 18Z" fill="#3B82F6"/>
</svg>
