<svg width="36" height="36" viewBox="0 0 36 36" fill="none" xmlns="http://www.w3.org/2000/svg">
<circle cx="18" cy="18" r="18" fill="#002767"/>
<path d="M24.75 19.125H19.125V24.75C19.125 25.3687 18.6187 25.875 18 25.875C17.3812 25.875 16.875 25.3687 16.875 24.75V19.125H11.25C10.6312 19.125 10.125 18.6187 10.125 18C10.125 17.3812 10.6312 16.875 11.25 16.875H16.875V11.25C16.875 10.6312 17.3812 10.125 18 10.125C18.6187 10.125 19.125 10.6312 19.125 11.25V16.875H24.75C25.3687 16.875 25.875 17.3812 25.875 18C25.875 18.6187 25.3687 19.125 24.75 19.125Z" fill="white"/>
</svg>
