
<svg width="28" height="28" viewBox="0 0 28 28" fill="none" xmlns="http://www.w3.org/2000/svg">
<path d="M9.33333 28H3.11111C1.4 28 0 26.6 0 24.8889V3.11111C0 1.4 1.4 0 3.11111 0H9.33333C11.0444 0 12.4444 1.4 12.4444 3.11111V24.8889C12.4444 26.6 11.0444 28 9.33333 28ZM18.6667 28H24.8889C26.6 28 28 26.6 28 24.8889V17.1111C28 15.4 26.6 14 24.8889 14H18.6667C16.9556 14 15.5556 15.4 15.5556 17.1111V24.8889C15.5556 26.6 16.9556 28 18.6667 28ZM28 7.77778V3.11111C28 1.4 26.6 0 24.8889 0H18.6667C16.9556 0 15.5556 1.4 15.5556 3.11111V7.77778C15.5556 9.48889 16.9556 10.8889 18.6667 10.8889H24.8889C26.6 10.8889 28 9.48889 28 7.77778Z" fill="#F1F1F1"/>
</svg>
