<svg width="32" height="32" viewBox="0 0 32 32" fill="none" xmlns="http://www.w3.org/2000/svg">
<path d="M6.02599 7.9126L1.85691 3.74354L3.74254 1.85791L30.1412 28.2565L28.2556 30.1422L23.8423 25.7289C21.5739 27.1672 18.8838 28.0001 15.9991 28.0001C8.80953 28.0001 2.82823 22.827 1.57422 16.0001C2.15646 12.8303 3.75779 10.017 6.02599 7.9126ZM19.6756 21.5622L17.7236 19.6102C17.2014 19.8601 16.6166 20.0001 15.9991 20.0001C13.7899 20.0001 11.999 18.2092 11.999 16.0001C11.999 15.3825 12.139 14.7977 12.3889 14.2754L10.4369 12.3235C9.73888 13.3774 9.33238 14.6413 9.33238 16.0001C9.33238 19.682 12.3172 22.6668 15.9991 22.6668C17.3578 22.6668 18.6216 22.2602 19.6756 21.5622ZM10.6313 5.01338C12.2937 4.3593 14.1044 4.00006 15.9991 4.00006C23.1886 4.00006 29.1699 9.17307 30.4239 16.0001C30.0076 18.2662 29.0704 20.3502 27.7411 22.1232L22.5947 16.9768C22.6415 16.658 22.6658 16.3318 22.6658 16.0001C22.6658 12.3182 19.681 9.33339 15.9991 9.33339C15.6672 9.33339 15.3411 9.35762 15.0223 9.40442L10.6313 5.01338Z" fill="black"/>
</svg>
