<svg width="24" height="24" viewBox="0 0 24 24" fill="none" xmlns="http://www.w3.org/2000/svg">
<path d="M20 7.25082V15.3753C19.9798 15.4711 19.9546 15.5669 19.9395 15.6626C19.8135 16.3279 19.5767 16.9478 19.098 17.4418C18.5991 17.9609 18.075 18.4548 17.571 18.9638C16.8706 19.6745 15.9987 19.987 15.0211 19.992C12.7735 20.0071 10.5209 19.9971 8.27339 19.992C7.99622 19.992 7.71906 19.992 7.44693 19.9618C6.12661 19.8358 5.11874 19.2058 4.46362 18.0466C4.11087 17.4216 4 16.721 4 15.9953C4 13.3392 4 10.6831 4 8.03202C4 7.73466 4.01512 7.4373 4.06551 7.14498C4.29732 5.79929 5.03811 4.84672 6.29795 4.31248C6.62047 4.1764 6.96819 4.11088 7.28063 4.02016C7.29071 4.0252 7.27055 4.01512 7.25039 4C10.3748 4 13.4992 4 16.6236 4C16.6841 4.02016 16.7496 4.0504 16.8101 4.06048C18.1556 4.29232 19.1332 5.00801 19.6775 6.27305C19.8186 6.60066 19.8841 6.9585 19.9798 7.28106C19.9748 7.29114 19.9899 7.27098 20 7.25082ZM18.7502 14.4581C18.7502 14.3925 18.7502 14.3421 18.7502 14.2917C18.7502 12.0943 18.7502 9.89684 18.7502 7.69938C18.7502 7.64898 18.7502 7.59354 18.7502 7.54314C18.6142 6.21257 17.5458 5.25497 16.2054 5.25497C13.4891 5.25497 10.7679 5.25497 8.05165 5.25497C7.84504 5.25497 7.63339 5.26505 7.42677 5.28521C6.26772 5.39105 5.2548 6.50489 5.2548 7.66914C5.2548 10.542 5.2548 13.4198 5.2548 16.2926C5.2548 16.3582 5.2548 16.4287 5.26488 16.4942C5.4211 17.8198 6.46929 18.7522 7.79969 18.7572C9.96661 18.7572 12.1335 18.7572 14.3005 18.7572C14.3559 18.7572 14.4113 18.7572 14.4517 18.7522C14.4517 18.1423 14.4466 17.5577 14.4517 16.968C14.4668 15.5921 15.515 14.5034 16.8706 14.4581C17.4047 14.4429 17.9439 14.4581 18.4781 14.4581C18.5638 14.4581 18.6545 14.4581 18.7553 14.4581H18.7502ZM15.7115 18.6715C16.0592 18.5556 16.3717 18.4094 16.6186 18.1675C17.1326 17.6686 17.6416 17.1595 18.1455 16.6454C18.3924 16.3884 18.5739 16.086 18.6595 15.7231C18.6243 15.713 18.5991 15.6979 18.5688 15.6979C17.9843 15.6979 17.3997 15.6828 16.8202 15.713C16.1751 15.7533 15.6913 16.2977 15.6863 16.9478C15.6813 17.4821 15.6863 18.0214 15.6863 18.5556C15.6863 18.5858 15.6964 18.6161 15.7014 18.6665L15.7115 18.6715Z" fill="#3B82F6"/>
<path d="M12.0074 8.93937C10.7929 8.93937 9.58346 8.93937 8.36897 8.93937C8.09181 8.93937 7.88015 8.83854 7.75417 8.58646C7.54756 8.17809 7.8348 7.70922 8.29338 7.68905C8.51008 7.67897 8.73181 7.68905 8.9485 7.68905C11.1608 7.68905 13.3731 7.68905 15.5853 7.68905C15.8474 7.68905 16.0691 7.75963 16.2102 7.99659C16.4622 8.42009 16.1699 8.93937 15.671 8.93937C14.6329 8.93937 13.5998 8.93937 12.5617 8.93937C12.3753 8.93937 12.1888 8.93937 11.9973 8.93937H12.0074Z" fill="#3B82F6"/>
<path d="M12.0224 11.3784C13.2168 11.3784 14.4061 11.3784 15.6004 11.3784C15.8776 11.3784 16.1144 11.4591 16.2505 11.7263C16.4571 12.1397 16.1547 12.5934 15.6659 12.6287C15.6306 12.6287 15.5954 12.6287 15.555 12.6287C13.1966 12.6287 10.8382 12.6287 8.47472 12.6287C8.31346 12.6287 8.13708 12.5934 7.99598 12.5178C7.77425 12.3968 7.67346 12.1851 7.71378 11.9229C7.75409 11.6557 7.91535 11.4944 8.16732 11.4188C8.27315 11.3885 8.38401 11.3835 8.48984 11.3835C9.66905 11.3835 10.8432 11.3835 12.0224 11.3835V11.3784Z" fill="#3B82F6"/>
<path d="M10.1581 15.068C10.7679 15.068 11.3776 15.068 11.9824 15.068C12.2898 15.068 12.5316 15.2697 12.5972 15.5671C12.6576 15.8344 12.5266 16.1167 12.2646 16.2377C12.1638 16.2831 12.0479 16.3133 11.937 16.3133C10.7427 16.3184 9.5433 16.3133 8.34897 16.3133C7.96597 16.3133 7.69385 16.0461 7.69385 15.6881C7.69385 15.3252 7.96597 15.063 8.34897 15.063C8.95369 15.063 9.55841 15.063 10.1581 15.063V15.068Z" fill="#3B82F6"/>
</svg>
